<?xml version="1.0" standalone="no"?>
<!DOCTYPE svg PUBLIC "-//W3C//DTD SVG 20010904//EN"
 "http://www.w3.org/TR/2001/REC-SVG-20010904/DTD/svg10.dtd">
<svg version="1.0" xmlns="http://www.w3.org/2000/svg"
 width="377.000000pt" height="259.000000pt" viewBox="0 0 377.000000 259.000000"
 preserveAspectRatio="xMidYMid meet">

<g transform="translate(0.000000,259.000000) scale(0.100000,-0.100000)"
fill="#000000" stroke="none">
<path d="M706 2331 c-3 -4 -27 -11 -53 -14 -55 -6 -73 -25 -73 -79 0 -21 -3
-38 -6 -38 -3 0 -20 9 -37 21 -29 18 -28 17 6 -14 27 -25 40 -46 44 -73 4 -21
15 -48 25 -59 12 -13 17 -27 13 -40 -18 -57 -17 -65 14 -100 37 -42 38 -51 10
-81 l-21 -22 -64 70 c-35 39 -90 89 -121 110 -53 35 -153 138 -153 157 0 5
-12 6 -26 3 -20 -4 -31 1 -45 19 -10 13 -21 20 -25 16 -4 -4 15 -29 44 -56 67
-63 122 -129 122 -147 0 -11 -9 -13 -37 -9 -21 3 -51 2 -68 -3 -27 -8 -22 -10
40 -16 130 -12 134 -15 229 -134 86 -107 103 -138 92 -167 -5 -13 -9 -13 -28
-3 -12 7 -28 20 -35 28 -11 13 -12 12 -13 -8 0 -13 -4 -20 -10 -17 -25 16 -6
-24 26 -55 36 -33 36 -34 30 -94 -4 -34 -9 -114 -11 -179 -2 -65 -7 -122 -10
-128 -4 -5 -11 -68 -16 -140 -5 -71 -16 -146 -24 -165 -14 -35 -16 -36 -37
-22 -13 8 -40 20 -60 27 -21 7 -38 19 -38 26 0 8 -10 24 -22 37 -13 13 -18 17
-12 8 7 -8 15 -25 18 -37 6 -18 3 -23 -11 -24 -12 -1 -10 -3 7 -8 54 -14 100
-36 100 -48 0 -7 9 -13 20 -13 18 0 19 -5 14 -82 -7 -118 -32 -290 -56 -379
-16 -62 -25 -79 -48 -93 -16 -9 -32 -25 -35 -36 -4 -11 -15 -24 -25 -30 -14
-7 -19 -5 -23 10 -6 25 -87 62 -124 58 -18 -2 -33 -14 -46 -36 -19 -32 -19
-33 -1 -53 15 -17 16 -21 4 -19 -35 5 -70 -1 -84 -15 -9 -9 -17 -11 -21 -5
-10 17 -25 11 -25 -10 0 -11 -4 -20 -10 -20 -6 0 -10 -32 -10 -75 l0 -75 1885
0 1885 0 0 23 c0 12 -9 28 -20 35 -17 10 -20 10 -20 -3 0 -25 -25 -17 -48 15
-40 54 -113 87 -224 101 -112 14 -118 12 -118 -50 0 -29 -2 -32 -15 -21 -18
15 -87 8 -141 -15 -29 -12 -35 -19 -31 -35 7 -26 -7 -34 -33 -18 -17 11 -22
11 -30 -2 -8 -12 -10 -12 -10 -1 0 11 -3 11 -17 0 -13 -11 -17 -11 -21 -1 -3
9 -8 10 -16 3 -16 -13 -374 -8 -591 9 -88 6 -191 11 -228 10 -49 -1 -74 3 -85
14 -10 8 -30 18 -45 21 -24 6 -29 4 -34 -15 -5 -20 -10 -21 -62 -15 -31 4 -99
16 -151 27 -52 11 -103 20 -112 20 -10 -1 -18 4 -18 9 0 6 -5 7 -11 4 -6 -4
-22 4 -36 16 -23 23 -25 23 -37 6 -17 -23 -26 -22 -26 3 0 12 -9 24 -22 29
-59 22 -67 22 -87 2 -28 -28 -31 -27 -31 13 0 73 -33 95 -103 71 -23 -8 -52
-15 -64 -15 -35 0 -53 -11 -53 -31 0 -31 -27 -34 -109 -11 -64 18 -163 41
-245 58 -11 2 -24 8 -30 14 -5 5 -18 10 -29 10 -10 0 -25 6 -32 14 -21 21 -28
141 -16 258 9 81 9 129 0 200 -14 106 -13 92 -4 222 6 86 10 102 31 123 28 28
31 43 8 43 -15 0 -15 2 -1 24 17 26 6 49 -19 39 -16 -6 -17 12 -5 279 5 125
12 182 21 193 16 19 88 57 144 75 21 7 55 23 75 37 20 14 44 22 55 19 10 -3
46 4 78 15 55 20 60 20 84 4 24 -16 26 -15 39 2 10 13 10 20 2 25 -15 9 20 37
46 38 17 0 97 36 97 44 0 2 -29 2 -64 0 -84 -3 -97 10 -61 61 14 21 25 44 25
52 0 7 13 16 29 19 17 4 38 16 48 27 18 21 18 21 -7 4 -33 -23 -53 -21 -65 4
-6 11 -30 32 -55 45 -25 14 -35 17 -22 7 74 -58 75 -59 69 -85 -4 -14 -21 -40
-37 -58 -24 -26 -30 -39 -25 -60 4 -16 1 -31 -7 -37 -21 -16 -88 -31 -168 -39
-41 -4 -95 -14 -120 -24 -65 -25 -114 -32 -144 -20 -34 13 -33 30 6 74 23 26
37 34 51 30 10 -3 26 1 35 10 10 8 38 24 62 35 25 11 39 21 33 21 -7 0 -13 10
-14 23 -1 20 -1 20 -10 -5 -6 -15 -20 -30 -32 -34 -12 -3 -30 -13 -39 -21 -14
-12 -23 -13 -49 -4 -27 9 -34 8 -46 -7 -13 -15 -14 -15 -9 0 18 60 18 87 -3
109 l-21 23 0 -52 c0 -46 -4 -57 -34 -90 l-34 -37 -37 38 c-31 32 -35 42 -30
67 4 17 12 30 19 30 7 0 22 11 34 25 12 14 18 25 14 25 -4 0 -15 -9 -25 -20
-21 -25 -36 -25 -44 -2 -4 9 -15 28 -25 43 -12 16 -21 50 -25 96 -5 66 -4 71
18 87 13 9 38 16 55 16 17 0 37 7 44 15 7 8 10 15 7 15 -3 0 -8 -4 -11 -9z
m2664 -2291 c0 -5 -9 -6 -19 -3 -12 3 -17 11 -14 19 4 11 9 12 19 3 8 -6 14
-15 14 -19z"/>
<path d="M266 2250 c8 -43 14 -51 14 -19 0 13 -5 31 -10 39 -7 11 -8 5 -4 -20z"/>
<path d="M1112 1660 c-3 -175 -5 -187 -43 -195 -33 -7 -36 -11 -65 -83 -22
-52 -24 -98 -9 -169 4 -18 11 -33 16 -33 5 0 6 -6 3 -14 -3 -8 -1 -23 5 -34
16 -30 25 -387 10 -410 -10 -16 -8 -28 12 -68 28 -56 56 -67 51 -19 l-4 30 22
-22 c27 -30 44 -29 36 0 -3 12 -1 92 5 177 21 314 31 506 30 558 0 28 3 52 7
52 4 0 19 11 34 25 24 22 26 28 17 55 -16 44 -52 50 -89 15 l-29 -28 -4 154
-3 154 -2 -145z m-71 -397 c7 -18 6 -30 -1 -37 -7 -7 -10 -6 -10 5 0 7 -3 24
-6 37 -9 31 4 28 17 -5z"/>
</g>
</svg>
